<?xml version="1.0" encoding="UTF-8"?>
<svg width="158px" height="40px" viewBox="0 0 158 40" version="1.1" xmlns="http://www.w3.org/2000/svg" xmlns:xlink="http://www.w3.org/1999/xlink">
    <!-- Generator: Sketch 64 (93537) - https://sketch.com -->
    <title>Group</title>
    <desc>Created with Sketch.</desc>
    <g id="Page-1" stroke="none" stroke-width="1" fill="none" fill-rule="evenodd">
        <g id="Desktop" transform="translate(-103.000000, -99.000000)" fill-rule="nonzero">
            <g id="Group" transform="translate(103.000000, 99.000000)">
                <path d="M51.7,27.24 C53.38,27.24 54.7566667,26.8333333 55.83,26.02 C56.9033333,25.2066667 57.5733333,24.08 57.84,22.64 L57.84,22.64 L55.02,22.64 C54.8466667,23.36 54.4766667,23.9233333 53.91,24.33 C53.3433333,24.7366667 52.5933333,24.94 51.66,24.94 C50.3666667,24.94 49.3533333,24.5033333 48.62,23.63 C47.8866667,22.7566667 47.52,21.5533333 47.52,20.02 C47.52,18.4866667 47.8866667,17.28 48.62,16.4 C49.3533333,15.52 50.3666667,15.08 51.66,15.08 C52.5933333,15.08 53.3433333,15.2966667 53.91,15.73 C54.4766667,16.1633333 54.8466667,16.76 55.02,17.52 L55.02,17.52 L57.84,17.52 C57.5733333,16.0133333 56.9033333,14.8433333 55.83,14.01 C54.7566667,13.1766667 53.38,12.76 51.7,12.76 C50.2866667,12.76 49.0733333,13.0666667 48.06,13.68 C47.0466667,14.2933333 46.2666667,15.1466667 45.72,16.24 C45.1733333,17.3333333 44.9,18.5933333 44.9,20.02 C44.9,21.4466667 45.1733333,22.7033333 45.72,23.79 C46.2666667,24.8766667 47.0466667,25.7233333 48.06,26.33 C49.0733333,26.9366667 50.2866667,27.24 51.7,27.24 Z M64.1442623,27.24 C65.090929,27.24 65.950929,27.02 66.7242623,26.58 C67.4975956,26.14 68.1075956,25.53 68.5542623,24.75 C69.000929,23.97 69.2242623,23.0666667 69.2242623,22.04 C69.2242623,21.0133333 69.000929,20.11 68.5542623,19.33 C68.1075956,18.55 67.500929,17.94 66.7342623,17.5 C65.9675956,17.06 65.110929,16.84 64.1642623,16.84 C63.2042623,16.84 62.340929,17.06 61.5742623,17.5 C60.8075956,17.94 60.1975956,18.55 59.7442623,19.33 C59.290929,20.11 59.0642623,21.0133333 59.0642623,22.04 C59.0642623,23.0666667 59.2875956,23.97 59.7342623,24.75 C60.180929,25.53 60.7875956,26.14 61.5542623,26.58 C62.320929,27.02 63.1842623,27.24 64.1442623,27.24 Z M64.1442623,25.02 C63.4775956,25.02 62.900929,24.77 62.4142623,24.27 C61.9275956,23.77 61.6842623,23.0266667 61.6842623,22.04 C61.6842623,21.0533333 61.9275956,20.31 62.4142623,19.81 C62.900929,19.31 63.4842623,19.06 64.1642623,19.06 C64.8175956,19.06 65.390929,19.31 65.8842623,19.81 C66.3775956,20.31 66.6242623,21.0533333 66.6242623,22.04 C66.6242623,23.0266667 66.3775956,23.77 65.8842623,24.27 C65.390929,24.77 64.810929,25.02 64.1442623,25.02 Z M73.4085246,27 L73.4085246,22.48 C73.4085246,21.72 73.5318579,21.1266667 73.7785246,20.7 C74.0251913,20.2733333 74.3685246,19.9733333 74.8085246,19.8 C75.2485246,19.6266667 75.7485246,19.54 76.3085246,19.54 L76.3085246,19.54 L77.0285246,19.54 L77.0285246,16.84 C76.1885246,16.84 75.4585246,17.03 74.8385246,17.41 C74.2185246,17.79 73.7285246,18.3 73.3685246,18.94 L73.3685246,18.94 L73.1285246,17.08 L70.8485246,17.08 L70.8485246,27 L73.4085246,27 Z M80.6727869,27 L80.6727869,21.88 C80.6727869,20.9733333 80.9027869,20.2666667 81.3627869,19.76 C81.8227869,19.2533333 82.4127869,19 83.1327869,19 C83.8661202,19 84.4061202,19.2266667 84.7527869,19.68 C85.0994536,20.1333333 85.2727869,20.7866667 85.2727869,21.64 L85.2727869,21.64 L85.2727869,27 L87.8327869,27 L87.8327869,21.4 C87.8327869,19.9066667 87.4927869,18.7733333 86.8127869,18 C86.1327869,17.2266667 85.1794536,16.84 83.9527869,16.84 C83.1661202,16.84 82.4827869,17.0133333 81.9027869,17.36 C81.3227869,17.7066667 80.8794536,18.1733333 80.5727869,18.76 L80.5727869,18.76 L80.3727869,17.08 L78.1127869,17.08 L78.1127869,27 L80.6727869,27 Z M94.4370492,27.24 C95.2370492,27.24 95.9537158,27.0933333 96.5870492,26.8 C97.2203825,26.5066667 97.7537158,26.1033333 98.1870492,25.59 C98.6203825,25.0766667 98.9303825,24.5066667 99.1170492,23.88 L99.1170492,23.88 L96.5170492,23.88 C96.3437158,24.2533333 96.0803825,24.5566667 95.7270492,24.79 C95.3737158,25.0233333 94.9370492,25.14 94.4170492,25.14 C93.7237158,25.14 93.1337158,24.92 92.6470492,24.48 C92.1603825,24.04 91.8903825,23.4333333 91.8370492,22.66 L91.8370492,22.66 L99.3770492,22.66 C99.3903825,22.4866667 99.4003825,22.32 99.4070492,22.16 C99.4137158,22 99.4170492,21.8466667 99.4170492,21.7 C99.4170492,20.7933333 99.2070492,19.97 98.7870492,19.23 C98.3670492,18.49 97.7837158,17.9066667 97.0370492,17.48 C96.2903825,17.0533333 95.4303825,16.84 94.4570492,16.84 C93.4170492,16.84 92.5137158,17.0633333 91.7470492,17.51 C90.9803825,17.9566667 90.3803825,18.58 89.9470492,19.38 C89.5137158,20.18 89.2970492,21.0933333 89.2970492,22.12 C89.2970492,23.1333333 89.5170492,24.0266667 89.9570492,24.8 C90.3970492,25.5733333 91.0037158,26.1733333 91.7770492,26.6 C92.5503825,27.0266667 93.4370492,27.24 94.4370492,27.24 Z M96.8170492,21.06 L91.8770492,21.06 C92.0103825,20.34 92.3170492,19.8033333 92.7970492,19.45 C93.2770492,19.0966667 93.8303825,18.92 94.4570492,18.92 C95.1103825,18.92 95.6570492,19.1133333 96.0970492,19.5 C96.5370492,19.8866667 96.7770492,20.4066667 96.8170492,21.06 L96.8170492,21.06 Z M103.481311,27 L103.481311,22.48 C103.481311,21.72 103.604645,21.1266667 103.851311,20.7 C104.097978,20.2733333 104.441311,19.9733333 104.881311,19.8 C105.321311,19.6266667 105.821311,19.54 106.381311,19.54 L106.381311,19.54 L107.101311,19.54 L107.101311,16.84 C106.261311,16.84 105.531311,17.03 104.911311,17.41 C104.291311,17.79 103.801311,18.3 103.441311,18.94 L103.441311,18.94 L103.201311,17.08 L100.921311,17.08 L100.921311,27 L103.481311,27 Z M112.285574,27.24 C113.138907,27.24 113.878907,27.1 114.505574,26.82 C115.13224,26.54 115.61224,26.1533333 115.945574,25.66 C116.278907,25.1666667 116.438907,24.6133333 116.425574,24 C116.425574,23.2933333 116.25224,22.75 115.905574,22.37 C115.558907,21.99 115.095574,21.7033333 114.515574,21.51 C113.935574,21.3166667 113.298907,21.14 112.605574,20.98 C111.965574,20.8333333 111.45224,20.6733333 111.065574,20.5 C110.678907,20.3266667 110.485574,20.0933333 110.485574,19.8 C110.485574,19.52 110.615574,19.2866667 110.875574,19.1 C111.135574,18.9133333 111.505574,18.82 111.985574,18.82 C112.945574,18.82 113.498907,19.1866667 113.645574,19.92 L113.645574,19.92 L116.065574,19.92 C115.93224,18.96 115.515574,18.2066667 114.815574,17.66 C114.115574,17.1133333 113.178907,16.84 112.005574,16.84 C110.738907,16.84 109.755574,17.14 109.055574,17.74 C108.355574,18.34 108.005574,19.08 108.005574,19.96 C108.005574,20.44 108.118907,20.8433333 108.345574,21.17 C108.57224,21.4966667 108.868907,21.7633333 109.235574,21.97 C109.60224,22.1766667 110.005574,22.3466667 110.445574,22.48 C110.885574,22.6133333 111.318907,22.7266667 111.745574,22.82 C112.41224,22.9666667 112.93224,23.1166667 113.305574,23.27 C113.678907,23.4233333 113.865574,23.7133333 113.865574,24.14 C113.865574,24.4333333 113.735574,24.6933333 113.475574,24.92 C113.215574,25.1466667 112.805574,25.26 112.245574,25.26 C111.685574,25.26 111.228907,25.1233333 110.875574,24.85 C110.52224,24.5766667 110.305574,24.2466667 110.225574,23.86 L110.225574,23.86 L107.645574,23.86 C107.725574,24.5266667 107.965574,25.1133333 108.365574,25.62 C108.765574,26.1266667 109.298907,26.5233333 109.965574,26.81 C110.63224,27.0966667 111.405574,27.24 112.285574,27.24 Z M123.869836,27 L123.869836,24.82 L122.629836,24.82 C122.123169,24.82 121.766503,24.73 121.559836,24.55 C121.353169,24.37 121.249836,24.04 121.249836,23.56 L121.249836,23.56 L121.249836,19.22 L123.929836,19.22 L123.929836,17.08 L121.249836,17.08 L121.249836,14.42 L118.989836,14.42 L118.689836,17.08 L116.989836,17.08 L116.989836,19.22 L118.689836,19.22 L118.689836,23.54 C118.689836,24.8333333 119.003169,25.7333333 119.629836,26.24 C120.256503,26.7466667 121.089836,27 122.129836,27 L122.129836,27 L123.869836,27 Z M129.974098,27.24 C130.920765,27.24 131.780765,27.02 132.554098,26.58 C133.327432,26.14 133.937432,25.53 134.384098,24.75 C134.830765,23.97 135.054098,23.0666667 135.054098,22.04 C135.054098,21.0133333 134.830765,20.11 134.384098,19.33 C133.937432,18.55 133.330765,17.94 132.564098,17.5 C131.797432,17.06 130.940765,16.84 129.994098,16.84 C129.034098,16.84 128.170765,17.06 127.404098,17.5 C126.637432,17.94 126.027432,18.55 125.574098,19.33 C125.120765,20.11 124.894098,21.0133333 124.894098,22.04 C124.894098,23.0666667 125.117432,23.97 125.564098,24.75 C126.010765,25.53 126.617432,26.14 127.384098,26.58 C128.150765,27.02 129.014098,27.24 129.974098,27.24 Z M129.974098,25.02 C129.307432,25.02 128.730765,24.77 128.244098,24.27 C127.757432,23.77 127.514098,23.0266667 127.514098,22.04 C127.514098,21.0533333 127.757432,20.31 128.244098,19.81 C128.730765,19.31 129.314098,19.06 129.994098,19.06 C130.647432,19.06 131.220765,19.31 131.714098,19.81 C132.207432,20.31 132.454098,21.0533333 132.454098,22.04 C132.454098,23.0266667 132.207432,23.77 131.714098,24.27 C131.220765,24.77 130.640765,25.02 129.974098,25.02 Z M139.238361,27 L139.238361,21.88 C139.238361,20.9733333 139.468361,20.2666667 139.928361,19.76 C140.388361,19.2533333 140.978361,19 141.698361,19 C142.431694,19 142.971694,19.2266667 143.318361,19.68 C143.665027,20.1333333 143.838361,20.7866667 143.838361,21.64 L143.838361,21.64 L143.838361,27 L146.398361,27 L146.398361,21.4 C146.398361,19.9066667 146.058361,18.7733333 145.378361,18 C144.698361,17.2266667 143.745027,16.84 142.518361,16.84 C141.731694,16.84 141.048361,17.0133333 140.468361,17.36 C139.888361,17.7066667 139.445027,18.1733333 139.138361,18.76 L139.138361,18.76 L138.938361,17.08 L136.678361,17.08 L136.678361,27 L139.238361,27 Z M153.002623,27.24 C153.802623,27.24 154.51929,27.0933333 155.152623,26.8 C155.785956,26.5066667 156.31929,26.1033333 156.752623,25.59 C157.185956,25.0766667 157.495956,24.5066667 157.682623,23.88 L157.682623,23.88 L155.082623,23.88 C154.90929,24.2533333 154.645956,24.5566667 154.292623,24.79 C153.93929,25.0233333 153.502623,25.14 152.982623,25.14 C152.28929,25.14 151.69929,24.92 151.212623,24.48 C150.725956,24.04 150.455956,23.4333333 150.402623,22.66 L150.402623,22.66 L157.942623,22.66 C157.955956,22.4866667 157.965956,22.32 157.972623,22.16 C157.97929,22 157.982623,21.8466667 157.982623,21.7 C157.982623,20.7933333 157.772623,19.97 157.352623,19.23 C156.932623,18.49 156.34929,17.9066667 155.602623,17.48 C154.855956,17.0533333 153.995956,16.84 153.022623,16.84 C151.982623,16.84 151.07929,17.0633333 150.312623,17.51 C149.545956,17.9566667 148.945956,18.58 148.512623,19.38 C148.07929,20.18 147.862623,21.0933333 147.862623,22.12 C147.862623,23.1333333 148.082623,24.0266667 148.522623,24.8 C148.962623,25.5733333 149.56929,26.1733333 150.342623,26.6 C151.115956,27.0266667 152.002623,27.24 153.002623,27.24 Z M155.382623,21.06 L150.442623,21.06 C150.575956,20.34 150.882623,19.8033333 151.362623,19.45 C151.842623,19.0966667 152.395956,18.92 153.022623,18.92 C153.675956,18.92 154.222623,19.1133333 154.662623,19.5 C155.102623,19.8866667 155.342623,20.4066667 155.382623,21.06 L155.382623,21.06 Z" id="Cornerstone" fill="#040406"></path>
                <g id="symbol" transform="translate(-0.000000, 0.000000)">
                    <g id="Cube1" fill="#1562FB">
                        <path d="M33.8278146,31.0993377 L19.2847682,39.4701987 C18.3046358,40.0264901 17.0860927,40.0264901 16.1059603,39.4701987 L1.58940397,31.0993377 C0.609271523,30.5430464 0,29.4834437 0,28.3443709 L0,11.5761589 C0,10.4370861 0.609271523,9.40397351 1.58940397,8.82119205 L16.1059603,0.42384106 C17.0860927,-0.132450331 18.3046358,-0.132450331 19.2847682,0.42384106 L33.8013245,8.82119205 C34.781457,9.37748344 35.3907285,10.4370861 35.3907285,11.5761589 L35.3907285,28.3443709 C35.4172185,29.4834437 34.807947,30.5165563 33.8278146,31.0993377 Z" id="Path"></path>
                    </g>
                    <g id="Cube2" transform="translate(6.622517, 7.417219)">
                        <path d="M21.0331126,19.4172185 L12.0529801,24.6092715 C11.4437086,24.9536424 10.7019868,24.9536424 10.0927152,24.6092715 L1.11258278,19.4172185 C0.503311258,19.0728477 0.132450331,18.410596 0.132450331,17.7218543 L0.132450331,7.33774834 C0.132450331,6.64900662 0.503311258,5.98675497 1.11258278,5.64238411 L10.0927152,0.450331126 C10.7019868,0.105960265 11.4437086,0.105960265 12.0529801,0.450331126 L21.0331126,5.64238411 C21.6423841,5.98675497 22.013245,6.64900662 22.013245,7.33774834 L22.013245,17.6953642 C22.013245,18.410596 21.6423841,19.0728477 21.0331126,19.4172185 Z" id="Path" fill="#FFFFFF"></path>
                        <path d="M11.0728477,12.5298013 L11.0728477,24.8476821 C11.4172185,24.8476821 11.7615894,24.7682119 12.0529801,24.5827815 L16.5298013,21.986755 L21.0066225,19.3907285 C21.615894,19.0463576 21.986755,18.384106 21.986755,17.6953642 L21.986755,7.33774834 C21.986755,6.99337748 21.8807947,6.64900662 21.7218543,6.35761589 L11.0728477,12.5298013 Z" id="Path" fill="#D0D2D3"></path>
                        <path d="M11.0728477,12.5298013 L21.7483444,6.35761589 C21.589404,6.06622517 21.3245033,5.8013245 21.0331126,5.64238411 L12.0529801,0.476821192 C11.4437086,0.132450331 10.7019868,0.132450331 10.0927152,0.476821192 L1.11258278,5.64238411 C0.821192053,5.82781457 0.556291391,6.06622517 0.397350993,6.35761589 L11.0728477,12.5298013 Z" id="Path" fill="#F1F1F2"></path>
                    </g>
                </g>
            </g>
        </g>
    </g>
</svg>