<?xml version="1.0" encoding="utf-8"?>
<!-- Generator: Adobe Illustrator 22.0.0, SVG Export Plug-In . SVG Version: 6.00 Build 0)  -->
<svg version="1.1" xmlns="http://www.w3.org/2000/svg" xmlns:xlink="http://www.w3.org/1999/xlink" x="0px" y="0px"
	 viewBox="0 0 638.6 150.6" style="enable-background:new 0 0 638.6 150.6;" xml:space="preserve">
<style type="text/css">
	.st0{fill:#40A2F3;}
	.st1{fill:#1C7AD5;}
	.st2{fill:#2E8EE4;}
	.st3{fill:#FFFFFF;}
	.st4{fill:#D0D2D3;}
	.st5{fill:#F1F1F2;}
</style>
<g id="Cornerstone">
	<g>
		<path d="M186.2,98.6c-4.8-5.2-7.2-13.4-7.2-24.5c0-21.4,10-32,30.1-32c3,0,6.1,0.3,9.2,0.9c3.1,0.6,5.5,1.5,7.3,2.5
			c1.6,0.9,2.3,1.9,2.3,2.9c0,0.8-0.3,1.9-1,3.3c-0.7,1.3-1.5,2.6-2.4,3.6c-0.9,1.1-1.8,1.6-2.5,1.6c-0.2,0-0.9-0.3-2.2-0.8
			s-2.8-1-4.6-1.4c-1.8-0.4-4-0.6-6.5-0.6c-5.3,0-9.2,1.7-11.7,5c-2.6,3.4-3.8,8.4-3.8,15.2c0,13.7,5.1,20.5,15.4,20.5
			c2.7,0,5-0.3,7-0.8c2-0.5,3.9-1.2,5.8-2.1c1-0.5,1.6-0.7,2-0.7c0.9,0,1.8,0.5,2.6,1.5c0.8,1,1.5,2.2,2,3.5
			c0.5,1.3,0.8,2.2,0.8,2.8c0,1.6-1.1,2.9-3.2,4.1c-2,1.1-4.6,2-7.8,2.6s-6.3,0.9-9.1,0.9C198.5,106.5,191,103.9,186.2,98.6z"/>
		<path d="M237,100.3c-3.7-4.2-5.6-10.2-5.6-18c0-7.9,1.9-13.9,5.6-18c3.7-4.1,9.1-6.2,16.3-6.2c7.1,0,12.6,2.1,16.2,6.2
			c3.7,4.1,5.5,10.1,5.5,18c0,7.9-1.8,13.9-5.5,18c-3.7,4.2-9.1,6.3-16.2,6.3C246.2,106.5,240.8,104.4,237,100.3z M259.6,92.5
			c1.3-2.3,2-5.7,2-10.3c0-4.6-0.7-8-2-10.3c-1.3-2.3-3.4-3.4-6.3-3.4c-2.8,0-4.9,1.1-6.3,3.4c-1.4,2.3-2.1,5.7-2.1,10.3
			c0,9.2,2.8,13.8,8.4,13.8C256.1,96,258.2,94.8,259.6,92.5z"/>
		<path d="M281.9,103.1V74.6c0-2.6-0.1-4.7-0.2-6.1c-0.2-1.4-0.3-3-0.6-4.7c-0.2-0.8-0.3-1.5-0.3-1.9c0-1,1.2-1.7,3.6-2.2
			c2.4-0.5,4.6-0.7,6.4-0.7c1.1,0,1.8,0.4,2.3,1.2c0.4,0.8,0.7,1.7,0.9,2.7c0.2,1,0.3,1.6,0.4,2c1.1-2.1,2.5-3.8,4-5
			c1.5-1.2,3.5-1.8,5.8-1.8c1.9,0,3.3,0.5,4,1.5c0.7,1,1.1,2.1,1.1,3.4c0,1.3-0.3,2.8-0.8,4.7s-1.2,2.8-2,2.8c-0.4,0-1-0.1-1.9-0.4
			c-0.9-0.2-1.7-0.4-2.3-0.4c-1.6,0-3,0.5-4.3,1.4c-1.2,0.9-2.2,2-2.9,3.1v28.9c0,1.9-1.8,2.9-5.4,2.9h-2.5
			C283.7,106,281.9,105,281.9,103.1z"/>
		<path d="M314.1,103.1V74.6c0-2.6-0.1-4.7-0.2-6.1c-0.2-1.4-0.3-3-0.6-4.7c-0.2-0.8-0.3-1.5-0.3-1.9c0-1,1.2-1.7,3.6-2.2
			c2.4-0.5,4.6-0.7,6.4-0.7c1.1,0,1.8,0.4,2.3,1.2c0.4,0.8,0.7,1.7,0.9,2.7c0.2,1,0.3,1.6,0.4,2c1.4-1.9,3.4-3.5,5.8-4.9
			c2.4-1.3,5-2,7.7-2c4.5,0,7.8,1.2,10,3.6c2.2,2.4,3.2,6,3.2,11v30.5c0,1.9-1.8,2.9-5.4,2.9h-2.5c-3.6,0-5.4-1-5.4-2.9V74.6
			c0-1.9-0.4-3.3-1.3-4.2c-0.8-0.9-2.2-1.4-4.1-1.4c-1.6,0-3,0.5-4.3,1.6c-1.2,1.1-2.2,2.3-2.9,3.6v28.9c0,1.9-1.8,2.9-5.4,2.9h-2.5
			C315.9,106,314.1,105,314.1,103.1z"/>
		<path d="M365.8,100.2c-3.9-4.2-5.8-10.1-5.8-17.6c0-8.5,1.9-14.7,5.8-18.6s9.2-5.9,16.1-5.9c6.7,0,11.6,2.2,14.7,6.5
			s4.7,9.9,4.7,16.7c0,0.7-0.6,1.8-1.8,3.2c-1.2,1.4-2.1,2.1-2.7,2.1h-22.9c0.3,3.4,1.3,5.8,3.1,7.3c1.7,1.4,4.2,2.2,7.3,2.2
			c1.7,0,3.2-0.2,4.6-0.6c1.4-0.4,2.8-0.9,4.3-1.5c1-0.5,1.6-0.7,2-0.7c0.6,0,1.3,0.4,2,1.3c0.7,0.9,1.4,1.9,1.9,3
			c0.5,1.1,0.8,2,0.8,2.6c0,1.4-0.9,2.6-2.8,3.6s-4.1,1.7-6.7,2.2s-4.8,0.7-6.8,0.7C375.6,106.5,369.7,104.4,365.8,100.2z
			 M388.4,77.6c0-2.8-0.5-5-1.6-6.6c-1.1-1.6-2.7-2.5-4.9-2.5c-4.4,0-7.1,3-8.1,9.1H388.4z"/>
		<path d="M407.8,103.1V74.6c0-2.6-0.1-4.7-0.2-6.1c-0.2-1.4-0.3-3-0.6-4.7c-0.2-0.8-0.3-1.5-0.3-1.9c0-1,1.2-1.7,3.6-2.2
			c2.4-0.5,4.6-0.7,6.4-0.7c1.1,0,1.8,0.4,2.3,1.2c0.4,0.8,0.7,1.7,0.9,2.7c0.2,1,0.3,1.6,0.4,2c1.1-2.1,2.5-3.8,4-5
			c1.5-1.2,3.5-1.8,5.8-1.8c1.9,0,3.3,0.5,4,1.5c0.7,1,1.1,2.1,1.1,3.4c0,1.3-0.3,2.8-0.8,4.7s-1.2,2.8-2,2.8c-0.4,0-1-0.1-1.9-0.4
			c-0.9-0.2-1.7-0.4-2.3-0.4c-1.6,0-3,0.5-4.3,1.4c-1.2,0.9-2.2,2-2.9,3.1v28.9c0,1.9-1.8,2.9-5.4,2.9h-2.5
			C409.6,106,407.8,105,407.8,103.1z"/>
		<path d="M441.8,104.8c-3.1-1.1-4.7-2.6-4.7-4.4c0-1.2,0.6-2.7,1.7-4.4c1.1-1.7,2.2-2.6,3.1-2.6c0.5,0,1.1,0.2,2,0.7
			c1.3,0.5,2.4,1,3.5,1.3c1,0.3,2.3,0.5,3.6,0.5c1.7,0,3-0.3,3.9-1c0.9-0.7,1.4-1.6,1.4-2.8c0-1.1-0.3-1.9-1-2.6
			c-0.7-0.7-1.4-1.2-2.2-1.5c-0.8-0.4-2.3-1-4.6-1.8c-3.1-1.2-5.5-2.8-7.4-4.7c-1.9-1.9-2.8-4.9-2.8-8.8c0-4.6,1.5-8.2,4.4-10.8
			c2.9-2.6,6.9-3.9,12-3.9c3.2,0,6.2,0.5,9.1,1.4c2.9,0.9,4.4,2.2,4.4,3.9c0,1.1-0.5,2.6-1.3,4.4c-0.9,1.8-1.7,2.7-2.5,2.7
			c-0.2,0-1.1-0.3-2.6-0.9c-1.5-0.6-3.2-0.9-5.1-0.9c-3.2,0-4.8,1.1-4.8,3.1c0,1.3,0.5,2.3,1.6,3.1c1,0.7,2.7,1.5,4.9,2.4
			c0.4,0.2,0.9,0.4,1.7,0.7c0.8,0.3,1.4,0.6,2,0.9c2.4,1.1,4.3,2.7,5.7,4.6c1.4,2,2.1,4.5,2.1,7.8c0,4.7-1.6,8.4-4.7,11.2
			c-3.1,2.8-7.4,4.2-13,4.2C448.3,106.5,444.9,106,441.8,104.8z"/>
		<path d="M476.6,91.9V69.3h-1.4c-1,0-1.7-0.4-2.1-1.1c-0.4-0.7-0.6-1.9-0.6-3.4v-1.5c0-1.6,0.2-2.7,0.6-3.4
			c0.4-0.7,1.1-1.1,2.1-1.1h1.4l1.2-8.6c0.3-1.9,1.9-2.9,4.9-2.9h2.8c3,0,4.5,1,4.5,2.9v8.6h4.4c1,0,1.6,0.4,2.1,1.1
			c0.4,0.7,0.6,1.9,0.6,3.4v1.5c0,1.6-0.2,2.7-0.6,3.4c-0.4,0.7-1.1,1.1-2.1,1.1h-4.4v22.9c0,1.4,0.3,2.4,0.8,3
			c0.5,0.6,1.3,0.9,2.5,0.9c0.3,0,0.7-0.1,1.2-0.2c0.5-0.1,0.9-0.2,1.2-0.2c0.5,0,1,0.5,1.4,1.3c0.4,0.9,0.7,1.9,1,3
			c0.2,1.1,0.4,1.8,0.4,2.2c0,2.9-2.9,4.4-8.6,4.4C481,106.5,476.6,101.7,476.6,91.9z"/>
		<path d="M506.5,100.3c-3.7-4.2-5.6-10.2-5.6-18c0-7.9,1.9-13.9,5.6-18c3.7-4.1,9.1-6.2,16.3-6.2c7.1,0,12.6,2.1,16.2,6.2
			c3.7,4.1,5.5,10.1,5.5,18c0,7.9-1.8,13.9-5.5,18c-3.7,4.2-9.1,6.3-16.2,6.3C515.7,106.5,510.2,104.4,506.5,100.3z M529.1,92.5
			c1.3-2.3,2-5.7,2-10.3c0-4.6-0.7-8-2-10.3c-1.4-2.3-3.4-3.4-6.3-3.4c-2.8,0-4.9,1.1-6.3,3.4c-1.4,2.3-2.1,5.7-2.1,10.3
			c0,9.2,2.8,13.8,8.4,13.8C525.6,96,527.7,94.8,529.1,92.5z"/>
		<path d="M551.4,103.1V74.6c0-2.6-0.1-4.7-0.2-6.1c-0.2-1.4-0.3-3-0.6-4.7c-0.2-0.8-0.3-1.5-0.3-1.9c0-1,1.2-1.7,3.6-2.2
			c2.4-0.5,4.6-0.7,6.4-0.7c1.1,0,1.8,0.4,2.3,1.2c0.4,0.8,0.7,1.7,0.9,2.7c0.2,1,0.3,1.6,0.4,2c1.4-1.9,3.4-3.5,5.8-4.9
			c2.4-1.3,4.9-2,7.6-2c4.5,0,7.8,1.2,10,3.6c2.2,2.4,3.2,6,3.2,11v30.5c0,1.9-1.8,2.9-5.4,2.9h-2.5c-3.6,0-5.4-1-5.4-2.9V74.6
			c0-1.9-0.4-3.3-1.3-4.2c-0.8-0.9-2.2-1.4-4.1-1.4c-1.6,0-3,0.5-4.3,1.6c-1.2,1.1-2.2,2.3-2.9,3.6v28.9c0,1.9-1.8,2.9-5.4,2.9h-2.5
			C553.2,106,551.4,105,551.4,103.1z"/>
		<path d="M603.1,100.2c-3.9-4.2-5.8-10.1-5.8-17.6c0-8.5,1.9-14.7,5.8-18.6s9.2-5.9,16.1-5.9c6.7,0,11.6,2.2,14.7,6.5
			c3.1,4.3,4.7,9.9,4.7,16.7c0,0.7-0.6,1.8-1.8,3.2c-1.2,1.4-2.1,2.1-2.7,2.1h-23c0.3,3.4,1.3,5.8,3.1,7.3c1.7,1.4,4.2,2.2,7.3,2.2
			c1.7,0,3.2-0.2,4.6-0.6c1.4-0.4,2.8-0.9,4.3-1.5c1-0.5,1.6-0.7,2-0.7c0.6,0,1.3,0.4,2,1.3c0.7,0.9,1.4,1.9,1.9,3
			c0.5,1.1,0.8,2,0.8,2.6c0,1.4-0.9,2.6-2.8,3.6c-1.9,1-4.1,1.7-6.7,2.2c-2.6,0.5-4.8,0.7-6.8,0.7
			C612.9,106.5,607,104.4,603.1,100.2z M625.6,77.6c0-2.8-0.5-5-1.6-6.6c-1.1-1.6-2.7-2.5-4.9-2.5c-4.4,0-7.1,3-8.1,9.1H625.6z"/>
	</g>
</g>
<g id="Cube1">
	<path class="st0" d="M127.7,117.4L72.8,149c-3.7,2.1-8.3,2.1-12,0L6,117.4c-3.7-2.1-6-6.1-6-10.4l0-63.3c0-4.3,2.3-8.2,6-10.4
		L60.8,1.6c3.7-2.1,8.3-2.1,12,0l54.8,31.7c3.7,2.1,6,6.1,6,10.4V107C133.7,111.3,131.4,115.2,127.7,117.4z"/>
	<path class="st1" d="M66.8,75.3v75.3c2.1,0,4.1-0.5,6-1.6l27.4-15.8l27.4-15.8c3.7-2.1,6-6.1,6-10.4V43.7c0-2.1-0.6-4.2-1.6-6
		L66.8,75.3z"/>
	<path class="st2" d="M66.8,75.3l65.2-37.7c-1-1.8-2.5-3.3-4.4-4.4L72.8,1.6c-3.7-2.1-8.3-2.1-12,0L6,33.3c-1.9,1.1-3.4,2.6-4.4,4.4
		L66.8,75.3z"/>
</g>
<g id="Cube2">
	<path class="st3" d="M104.4,101.3l-33.9,19.6c-2.3,1.3-5.1,1.3-7.4,0l-33.9-19.6c-2.3-1.3-3.7-3.8-3.7-6.4V55.7
		c0-2.6,1.4-5.1,3.7-6.4l33.9-19.6c2.3-1.3,5.1-1.3,7.4,0l33.9,19.6c2.3,1.3,3.7,3.8,3.7,6.4v39.1C108.1,97.5,106.7,100,104.4,101.3
		z"/>
	<path class="st4" d="M66.8,75.3v46.5c1.3,0,2.6-0.3,3.7-1l16.9-9.8l16.9-9.8c2.3-1.3,3.7-3.8,3.7-6.4V55.7c0-1.3-0.4-2.6-1-3.7
		L66.8,75.3z"/>
	<path class="st5" d="M66.8,75.3L107.1,52c-0.6-1.1-1.6-2.1-2.7-2.7L70.5,29.8c-2.3-1.3-5.1-1.3-7.4,0L29.2,49.3
		c-1.1,0.7-2.1,1.6-2.7,2.7L66.8,75.3z"/>
</g>
</svg>
