<?xml version="1.0" encoding="UTF-8"?>
<svg width="36px" height="40px" viewBox="0 0 36 40" version="1.1" xmlns="http://www.w3.org/2000/svg" xmlns:xlink="http://www.w3.org/1999/xlink">
    <!-- Generator: Sketch 64 (93537) - https://sketch.com -->
    <title>symbol</title>
    <desc>Created with Sketch.</desc>
    <g id="Page-1" stroke="none" stroke-width="1" fill="none" fill-rule="evenodd">
        <g id="Desktop" transform="translate(-103.000000, -99.000000)" fill-rule="nonzero">
            <g id="symbol" transform="translate(103.000000, 99.000000)">
                <g id="Cube1" fill="#1562FB">
                    <path d="M33.8278146,31.0993377 L19.2847682,39.4701987 C18.3046358,40.0264901 17.0860927,40.0264901 16.1059603,39.4701987 L1.58940397,31.0993377 C0.609271523,30.5430464 0,29.4834437 0,28.3443709 L0,11.5761589 C0,10.4370861 0.609271523,9.40397351 1.58940397,8.82119205 L16.1059603,0.42384106 C17.0860927,-0.132450331 18.3046358,-0.132450331 19.2847682,0.42384106 L33.8013245,8.82119205 C34.781457,9.37748344 35.3907285,10.4370861 35.3907285,11.5761589 L35.3907285,28.3443709 C35.4172185,29.4834437 34.807947,30.5165563 33.8278146,31.0993377 Z" id="Path"></path>
                </g>
                <g id="Cube2" transform="translate(6.622517, 7.417219)">
                    <path d="M21.0331126,19.4172185 L12.0529801,24.6092715 C11.4437086,24.9536424 10.7019868,24.9536424 10.0927152,24.6092715 L1.11258278,19.4172185 C0.503311258,19.0728477 0.132450331,18.410596 0.132450331,17.7218543 L0.132450331,7.33774834 C0.132450331,6.64900662 0.503311258,5.98675497 1.11258278,5.64238411 L10.0927152,0.450331126 C10.7019868,0.105960265 11.4437086,0.105960265 12.0529801,0.450331126 L21.0331126,5.64238411 C21.6423841,5.98675497 22.013245,6.64900662 22.013245,7.33774834 L22.013245,17.6953642 C22.013245,18.410596 21.6423841,19.0728477 21.0331126,19.4172185 Z" id="Path" fill="#FFFFFF"></path>
                    <path d="M11.0728477,12.5298013 L11.0728477,24.8476821 C11.4172185,24.8476821 11.7615894,24.7682119 12.0529801,24.5827815 L16.5298013,21.986755 L21.0066225,19.3907285 C21.615894,19.0463576 21.986755,18.384106 21.986755,17.6953642 L21.986755,7.33774834 C21.986755,6.99337748 21.8807947,6.64900662 21.7218543,6.35761589 L11.0728477,12.5298013 Z" id="Path" fill="#D0D2D3"></path>
                    <path d="M11.0728477,12.5298013 L21.7483444,6.35761589 C21.589404,6.06622517 21.3245033,5.8013245 21.0331126,5.64238411 L12.0529801,0.476821192 C11.4437086,0.132450331 10.7019868,0.132450331 10.0927152,0.476821192 L1.11258278,5.64238411 C0.821192053,5.82781457 0.556291391,6.06622517 0.397350993,6.35761589 L11.0728477,12.5298013 Z" id="Path" fill="#F1F1F2"></path>
                </g>
            </g>
        </g>
    </g>
</svg>