<?xml version="1.0" encoding="utf-8"?>
<!-- Generator: Adobe Illustrator 22.0.0, SVG Export Plug-In . SVG Version: 6.00 Build 0)  -->
<svg version="1.1" xmlns="http://www.w3.org/2000/svg" xmlns:xlink="http://www.w3.org/1999/xlink" x="0px" y="0px"
	 viewBox="0 0 133.7 150.6" style="enable-background:new 0 0 133.7 150.6;" xml:space="preserve">
<style type="text/css">
	.st0{fill:#40A2F3;}
	.st1{fill:#1C7AD5;}
	.st2{fill:#2E8EE4;}
	.st3{fill:#FFFFFF;}
	.st4{fill:#D0D2D3;}
	.st5{fill:#F1F1F2;}
</style>
<g id="Cornerstone">
</g>
<g id="Cube1">
	<path class="st0" d="M127.7,117.4L72.8,149c-3.7,2.1-8.3,2.1-12,0L6,117.4c-3.7-2.1-6-6.1-6-10.4l0-63.3c0-4.3,2.3-8.2,6-10.4
		L60.8,1.6c3.7-2.1,8.3-2.1,12,0l54.8,31.7c3.7,2.1,6,6.1,6,10.4V107C133.7,111.3,131.4,115.2,127.7,117.4z"/>
	<path class="st1" d="M66.8,75.3v75.3c2.1,0,4.1-0.5,6-1.6l27.4-15.8l27.4-15.8c3.7-2.1,6-6.1,6-10.4V43.7c0-2.1-0.6-4.2-1.6-6
		L66.8,75.3z"/>
	<path class="st2" d="M66.8,75.3l65.2-37.7c-1-1.8-2.5-3.3-4.4-4.4L72.8,1.6c-3.7-2.1-8.3-2.1-12,0L6,33.3c-1.9,1.1-3.4,2.6-4.4,4.4
		L66.8,75.3z"/>
</g>
<g id="Cube2">
	<path class="st3" d="M104.4,101.3l-33.9,19.6c-2.3,1.3-5.1,1.3-7.4,0l-33.9-19.6c-2.3-1.3-3.7-3.8-3.7-6.4V55.7
		c0-2.6,1.4-5.1,3.7-6.4l33.9-19.6c2.3-1.3,5.1-1.3,7.4,0l33.9,19.6c2.3,1.3,3.7,3.8,3.7,6.4v39.1C108.1,97.5,106.7,100,104.4,101.3
		z"/>
	<path class="st4" d="M66.8,75.3v46.5c1.3,0,2.6-0.3,3.7-1l16.9-9.8l16.9-9.8c2.3-1.3,3.7-3.8,3.7-6.4V55.7c0-1.3-0.4-2.6-1-3.7
		L66.8,75.3z"/>
	<path class="st5" d="M66.8,75.3L107.1,52c-0.6-1.1-1.6-2.1-2.7-2.7L70.5,29.8c-2.3-1.3-5.1-1.3-7.4,0L29.2,49.3
		c-1.1,0.7-2.1,1.6-2.7,2.7L66.8,75.3z"/>
</g>
</svg>
